<?xml version="1.0" encoding="UTF-8"?>
<svg width="752pt" height="752pt" version="1.1" viewBox="0 0 752 752" xmlns="http://www.w3.org/2000/svg">
 <g>
  <path d="m553.59 316.8h14.801v14.801h-14.801z"/>
  <path d="m538.79 339h29.598v14.801h-29.598z"/>
  <path d="m524 361.2h44.398v14.801h-44.398z"/>
  <path d="m204.91 231.96 27.055-27.055 10.465 10.465-27.055 27.055z"/>
  <path d="m182.71 209.77 27.055-27.059 10.465 10.465-27.055 27.059z"/>
  <path d="m575.79 405.6c5.8828-0.019531 11.52-2.3633 15.68-6.5234 4.1562-4.1602 6.5039-9.793 6.5195-15.676v-207.19c-0.015626-5.8828-2.3633-11.52-6.5195-15.68-4.1602-4.1602-9.7969-6.5039-15.68-6.5195h-399.58c-5.8828 0.015625-11.52 2.3594-15.68 6.5195s-6.5039 9.7969-6.5195 15.68v207.19c0.015625 5.8828 2.3594 11.516 6.5195 15.676s9.7969 6.5039 15.68 6.5234h86.5c2.5703 5.5312 6.1289 10.547 10.508 14.797h-0.8125c-5.8828 0.019531-11.52 2.3633-15.68 6.5234-4.1562 4.1602-6.5039 9.793-6.5195 15.676v7.3984l-29.598 0.003906c-5.8828 0.015625-11.52 2.3594-15.68 6.5195-4.1602 4.1602-6.5039 9.7969-6.5195 15.68v14.801l-22.199-0.003906c-5.8828 0.019531-11.52 2.3633-15.68 6.5234-4.1602 4.1562-6.5039 9.793-6.5195 15.676v81.398c0 1.9609 0.77734 3.8438 2.1641 5.2305 1.3906 1.3867 3.2734 2.168 5.2344 2.168h44.398c1.9609 0 3.8438-0.78125 5.2305-2.168 1.3906-1.3867 2.168-3.2695 2.168-5.2305v-7.4023h325.59v7.4023c0 1.9609 0.78125 3.8438 2.168 5.2305 1.3906 1.3867 3.2695 2.168 5.2344 2.168h44.398c1.9609 0 3.8438-0.78125 5.2305-2.168s2.168-3.2695 2.168-5.2305v-81.398c-0.015626-5.8828-2.3633-11.52-6.5195-15.676-4.1602-4.1602-9.7969-6.5039-15.68-6.5234h-22.199v-14.797c-0.015625-5.8828-2.3633-11.52-6.5195-15.68-4.1602-4.1602-9.7969-6.5039-15.68-6.5195h-29.598v-7.4023c-0.019531-5.8828-2.3633-11.516-6.5234-15.676-4.1562-4.1602-9.793-6.5039-15.676-6.5234h-0.8125c4.375-4.25 7.9375-9.2656 10.504-14.797zm-377.38 177.59h-29.602v-73.996c0-4.0859 3.3125-7.3984 7.4023-7.3984h22.199zm355.18-81.395h22.199c1.9648 0 3.8438 0.77734 5.2344 2.168 1.3867 1.3867 2.1641 3.2695 2.1641 5.2305v73.996h-29.598zm-199.79-51.797h-88.793v-7.4023c0-4.0859 3.3125-7.3984 7.3984-7.3984h73.996c1.9609 0 3.8438 0.78125 5.2344 2.168 1.3867 1.3867 2.1641 3.2695 2.1641 5.2305zm29.598-7.3984v7.3984h-14.797v-7.4023c-0.015624-5.8828-2.3633-11.516-6.5195-15.676-4.1602-4.1602-9.7969-6.5039-15.68-6.5234h-0.8125c4.375-4.25 7.9375-9.2656 10.508-14.797h39.809c2.5703 5.5312 6.1289 10.547 10.508 14.797h-0.8125c-5.8828 0.019531-11.52 2.3633-15.68 6.5234s-6.5039 9.793-6.5195 15.676zm96.195-7.3984 0.003906-0.003906c1.9609 0 3.8438 0.78125 5.2305 2.168 1.3906 1.3867 2.168 3.2695 2.168 5.2305v7.3984l-88.797 0.003906v-7.4023c0-4.0859 3.3125-7.3984 7.4023-7.3984zm-36.996-103.6c-13.73 0.015626-26.898 5.4805-36.609 15.191-9.7109 9.7109-15.172 22.875-15.188 36.609 0.011719 2.4766 0.20703 4.9492 0.59375 7.3984h-30.785c0.38281-2.4492 0.58203-4.9219 0.59375-7.3984 0-18.508-9.875-35.605-25.898-44.859-16.027-9.2539-35.773-9.2539-51.801 0-16.023 9.2539-25.898 26.352-25.898 44.859 0.011719 2.4766 0.20703 4.9492 0.59375 7.3984h-81.988c-4.0898 0-7.4023-3.3125-7.4023-7.3984v-207.19c0-4.0898 3.3125-7.4023 7.4023-7.4023h399.58c1.9648 0 3.8438 0.78125 5.2344 2.168 1.3867 1.3867 2.1641 3.2695 2.1641 5.2344v207.19c0 1.9609-0.77734 3.8438-2.1641 5.2305-1.3906 1.3867-3.2695 2.168-5.2344 2.168h-81.988c0.38281-2.4492 0.58203-4.9219 0.59375-7.3984-0.015626-13.734-5.4805-26.898-15.191-36.609-9.7109-9.7109-22.875-15.176-36.609-15.191z"/>
  <path d="m442.6 265.01c0.035156 2.7969-1.5508 5.3594-4.0703 6.582l-88.797 44.398h0.003906c-1.0352 0.52344-2.1758 0.80078-3.332 0.81641-1.3828 0-2.7422-0.38672-3.9219-1.1094-2.168-1.3555-3.4844-3.7344-3.4766-6.293v-88.793c0.007813-2.5664 1.3438-4.9453 3.5273-6.2852 2.1875-1.3438 4.9102-1.457 7.2031-0.30078l88.797 44.398h-0.003906c2.5195 1.2227 4.1055 3.7852 4.0703 6.5859z"/>
 </g>
</svg>
